<svg width="103" height="90" fill="none" xmlns="http://www.w3.org/2000/svg"><path fill-rule="evenodd" clip-rule="evenodd" d="M26.755 30.603c-.928-.009-1.7.206-2.282.66-.32.25-.565.57-.751.945L.444 89.942 61.67 73.341c.3-.107.571-.251.81-.439 3.718-2.908-1.775-14.588-12.27-26.087-8.855-9.701-18.44-16.175-23.455-16.212z" fill="url(#a)"/><path fill-rule="evenodd" clip-rule="evenodd" d="M26.145 30.636c-.058.006-.112.016-.168.027.056-.01.11-.021.168-.027zm1.487.039c.065.008.13.014.196.025-.066-.01-.13-.017-.196-.025zm-2.059.066zm3.198.158zm-3.717.027c-.05.023-.102.041-.15.066.048-.025.1-.043.15-.066zm-.58.338zm5.513.006zm-5.892.364c-.026.031-.05.066-.075.101.026-.033.049-.07.075-.1zm7.76.422zm-8.359.71L.444 89.942l60.734-16.467c-4.651.94-14.961-5.744-24.436-16.124-9.17-10.048-14.523-20.233-13.246-24.585zm10.026.14zm1.635.957zm1.619 1.046zm1.756 1.24zm2.384 1.85zm1.92 1.61c.345.3.69.6 1.036.911-.346-.31-.691-.61-1.036-.911zm1.902 1.702zm1.826 1.735zm1.774 1.78zm4.592 5.118zM61.903 63.6z" fill="url(#b)"/><path fill-rule="evenodd" clip-rule="evenodd" d="M39.092 23.695s4.185-2.962 5.043.397l-.096-2.824-1.451-2.433s-2.99-2.598-4.92 1.222c.8 1.979 1.424 3.638 1.424 3.638z" fill="#5333A5"/><path fill-rule="evenodd" clip-rule="evenodd" d="m37.04 30.333 3.75 1.458s5.885-2.199 5.753-8.767l-3.984-4.222s3.91 5.815-5.52 11.531z" fill="#7C4AF9"/><path fill-rule="evenodd" clip-rule="evenodd" d="M28.991 21.222s.31-2.027 2.385-2.98l-1.312-3.603s-2.099.764-2.91 2.577l1.837 4.006z" fill="url(#c)"/><path fill-rule="evenodd" clip-rule="evenodd" d="m50.796 14.907 4.208-.232s1.846-2.823.178-5.966l-3.873-.216s1.839 3.063-.513 6.414z" fill="#5340FE"/><path fill-rule="evenodd" clip-rule="evenodd" d="M75.174 1.18 77.099.009s2.245.125 4.42.897c2.408.854 3.047 1.402 4.415 1.742 1.368.337 3.734-.272 3.734-.272l-1.529 2.783s-1.676 1.414-3.543.934c-1.775-.457-3.024-1.278-4.93-2.091-2.268-.97-5.968.531-5.968.531s.801-2.75 1.476-3.351z" fill="#9C7B24"/><path fill-rule="evenodd" clip-rule="evenodd" d="m54.238 26.237.187 3.645s6.58.762 11.601-4.955c5.022-5.716 5.992-19.77 11.089-24.915 0 0-4.118-.478-6.432 4.648-2.314 5.125-1.919 7.945-4.42 12.927-2.66 5.296-5.23 9.094-12.025 8.65z" fill="#F6BF31"/><path fill-rule="evenodd" clip-rule="evenodd" d="m99.285 6.278-4.067 2.106s-1.794 3.845 3.475 6.593l3.973-1.908s-3.635-1.186-3.381-6.791z" fill="url(#d)"/><path fill-rule="evenodd" clip-rule="evenodd" d="M100.314 24.438s-3.523 3.197-.502 8.604l-4.486.844s-3.454-4.382-.08-9.436l5.068-.012z" fill="#FC4971"/><path fill-rule="evenodd" clip-rule="evenodd" d="m79.493 36.435 4.442.693s-1.408 3.358-3.102 3.59c-1.694.23-2.643-1.08-2.643-1.08l1.303-3.203z" fill="#2769B6"/><path fill-rule="evenodd" clip-rule="evenodd" d="M80.936 40.706s-1.516-.673-1.038-3.504c.478-2.828 1.212-5.866.756-7.297l-4.224-.412s.895 3.755-.135 7.02c-1.03 3.264 1.757 4.79 4.641 4.193z" fill="#3592FF"/><path fill-rule="evenodd" clip-rule="evenodd" d="m47.404 36.426 4.697 1.097s1.33 4.506-7.242 8.835l-3.085-2.741s5.467-1.925 5.63-7.19z" fill="url(#e)"/><path fill-rule="evenodd" clip-rule="evenodd" d="M58.026 44.337s1.417 1.41 3.537 1.031 3.674-1.85 5.472-1.11l.791 4.5s-1.012-1.012-4.442.719c-2.797 1.41-3.331.615-4.277-.196l-1.081-4.944z" fill="url(#f)"/><path fill-rule="evenodd" clip-rule="evenodd" d="M85.305 47.348s-2.183 3.226-7.748 3.901c-5.566.673-12.426-.148-14.808 5.756l.579 6.177s1.942-5.597 6.16-6.57c4.217-.976 5.4-.422 8.675-1.29 3.274-.868 6-2.776 6-2.776l1.142-5.198z" fill="url(#g)"/><path fill-rule="evenodd" clip-rule="evenodd" d="M62.792 57.048s1.316 4.022 7.394 3.594l-.148 4.61s-4.03.384-6.742-2.158l-.504-6.046z" fill="url(#h)"/><path fill-rule="evenodd" clip-rule="evenodd" d="m92.219 46.278-1.542 5.023s1.7-1.38 3.227-1.102c1.527.276 4.54 1.787 6.851-.316l1.156-6.077s-.761 2.802-3.021 3.038c-2.26.237-3.693-2.209-6.671-.566z" fill="url(#i)"/><path fill-rule="evenodd" clip-rule="evenodd" d="m17.302 48.128-3.63 9.006c7.16 5.603 15.12 10.922 24.425 15.951 2.775 1.5 5.63 2.94 8.55 4.33l14.313-3.88-.05-.022c-2.819.383-7.502-1.784-12.779-5.716a178.438 178.438 0 0 1-5.61-2.896C33.167 59.843 25.25 54.493 18.17 48.84c-.32-.258-.573-.474-.867-.713z" fill="url(#j)"/><path fill-rule="evenodd" clip-rule="evenodd" d="m10.517 64.957-3.67 9.106a118.18 118.18 0 0 0 7.232 5.612 106.452 106.452 0 0 0 7.09 4.648l13.193-3.576c-5.034-2.25-10.014-5.177-14.878-8.648a109.135 109.135 0 0 1-8.967-7.142z" fill="url(#k)"/><path fill-rule="evenodd" clip-rule="evenodd" d="m3.314 82.826-2.87 7.116 9.35-2.534a25.93 25.93 0 0 1-5.496-3.672 25.808 25.808 0 0 1-.984-.91z" fill="url(#l)"/><defs><linearGradient id="a" x1="47.597" y1="43.585" x2="30.323" y2="61.686" gradientUnits="userSpaceOnUse"><stop stop-color="#55C775"/><stop offset="1" stop-color="#0D3627"/></linearGradient><linearGradient id="b" x1=".444" y1="60.29" x2="41.65" y2="88.73" gradientUnits="userSpaceOnUse"><stop stop-color="#31F63F"/><stop offset="1" stop-color="#195F13"/></linearGradient><linearGradient id="c" x1="27.154" y1="17.931" x2="31.376" y2="17.931" gradientUnits="userSpaceOnUse"><stop stop-color="#B6762E"/><stop offset="1" stop-color="#FFA94A"/></linearGradient><linearGradient id="d" x1="94.923" y1="10.628" x2="102.666" y2="10.628" gradientUnits="userSpaceOnUse"><stop stop-color="#5C99C4"/><stop offset="1" stop-color="#0E488B"/></linearGradient><linearGradient id="e" x1="41.774" y1="41.394" x2="52.176" y2="41.394" gradientUnits="userSpaceOnUse"><stop stop-color="#25D5D6"/><stop offset="1" stop-color="#1AA1A4"/></linearGradient><linearGradient id="f" x1="58.026" y1="47.152" x2="67.826" y2="47.152" gradientUnits="userSpaceOnUse"><stop stop-color="#31F63F"/><stop offset="1" stop-color="#308B27"/></linearGradient><linearGradient id="g" x1="62.749" y1="55.265" x2="85.305" y2="55.265" gradientUnits="userSpaceOnUse"><stop stop-color="#FC4971"/><stop offset=".973" stop-color="#B4273D"/></linearGradient><linearGradient id="h" x1="62.792" y1="61.161" x2="70.186" y2="61.161" gradientUnits="userSpaceOnUse"><stop stop-color="#B22645"/><stop offset="1" stop-color="#490A14"/></linearGradient><linearGradient id="i" x1="90.677" y1="47.554" x2="101.911" y2="47.554" gradientUnits="userSpaceOnUse"><stop stop-color="#9978FD"/><stop offset=".995" stop-color="#2B1756"/></linearGradient><linearGradient id="j" x1="13.671" y1="62.772" x2="60.959" y2="62.772" gradientUnits="userSpaceOnUse"><stop stop-color="#EDFFEE"/><stop offset="1" stop-color="#9DD698"/></linearGradient><linearGradient id="k" x1="6.846" y1="74.64" x2="34.362" y2="74.64" gradientUnits="userSpaceOnUse"><stop stop-color="#EDFFEE"/><stop offset="1" stop-color="#A3D29F"/></linearGradient><linearGradient id="l" x1=".444" y1="86.384" x2="9.793" y2="86.384" gradientUnits="userSpaceOnUse"><stop stop-color="#EDFFEE"/><stop offset="1" stop-color="#95C591"/></linearGradient></defs></svg>