<svg width="130" height="39" fill="none" xmlns="http://www.w3.org/2000/svg"><path d="M21.868 30.501c-2.248 0-4.15-.421-5.71-1.264-1.559-.843-2.746-2.009-3.56-3.498-.815-1.489-1.223-3.202-1.223-5.14 0-1.854.478-3.526 1.433-5.015.955-1.489 2.233-2.675 3.835-3.56 1.6-.885 3.385-1.328 5.351-1.328 2.64 0 4.81.766 6.51 2.297 1.7 1.53 2.803 3.743 3.308 6.636L17.485 24.18l-1.306-3.202 10.366-3.498-1.222.548a4.397 4.397 0 0 0-1.2-1.917c-.577-.548-1.44-.822-2.592-.822-.871 0-1.637.204-2.297.611-.66.408-1.166.984-1.517 1.728s-.526 1.622-.526 2.634c0 1.151.21 2.113.632 2.886.42.773.997 1.355 1.727 1.749.73.393 1.545.59 2.444.59.646 0 1.271-.113 1.875-.337.604-.225 1.201-.52 1.791-.885l2.613 4.382a14.944 14.944 0 0 1-3.182 1.348c-1.137.337-2.212.506-3.223.506zM41.944 3.513l-5.899 5.9v2.084H33.18v4.593h2.865v14.537h5.9V16.09h4.466v-4.593h-4.467V3.513zM55.321 30.375c-1.517 0-2.928-.267-4.234-.801-1.307-.534-2.41-1.278-3.308-2.233l2.444-3.245c.899.815 1.735 1.398 2.507 1.749.773.351 1.468.527 2.086.527.477 0 .906-.05 1.285-.148.38-.098.681-.253.906-.463.225-.211.337-.485.337-.822 0-.478-.19-.857-.569-1.138-.38-.28-.864-.512-1.454-.695a120.71 120.71 0 0 0-1.896-.569c-1.685-.534-2.9-1.313-3.645-2.339-.744-1.025-1.116-2.142-1.116-3.35 0-.926.245-1.86.737-2.802.492-.94 1.278-1.727 2.36-2.36 1.081-.631 2.479-.947 4.192-.947 1.545 0 2.852.154 3.92.463a9.612 9.612 0 0 1 3.033 1.517l-2.233 3.455a8.41 8.41 0 0 0-1.79-1.074c-.661-.295-1.272-.457-1.834-.485-.506-.028-.934.028-1.285.169-.351.14-.625.323-.822.547-.196.225-.295.464-.295.717-.028.534.176.955.611 1.264.436.309.99.548 1.665.716.674.169 1.334.366 1.98.59.9.281 1.672.66 2.318 1.138a5.08 5.08 0 0 1 1.496 1.706c.35.66.526 1.454.526 2.381a6.261 6.261 0 0 1-.864 3.182c-.575.997-1.446 1.805-2.612 2.423-1.166.618-2.648.927-4.446.927zM75.103 30.501c-2.247 0-4.15-.421-5.71-1.264-1.558-.843-2.745-2.009-3.56-3.498-.815-1.489-1.222-3.202-1.222-5.14 0-1.854.478-3.526 1.433-5.015.955-1.489 2.233-2.675 3.834-3.56 1.602-.885 3.385-1.328 5.352-1.328 2.64 0 4.81.766 6.51 2.297 1.7 1.53 2.802 3.743 3.308 6.636L70.72 24.18l-1.306-3.202L79.78 17.48l-1.222.548a4.397 4.397 0 0 0-1.201-1.917c-.576-.548-1.44-.822-2.592-.822-.87 0-1.636.204-2.296.611-.66.408-1.166.984-1.517 1.728s-.527 1.622-.527 2.634c0 1.151.21 2.113.632 2.886.421.773.997 1.355 1.728 1.749.73.393 1.545.59 2.444.59.646 0 1.27-.113 1.875-.337.604-.225 1.2-.52 1.79-.885l2.613 4.382a14.946 14.946 0 0 1-3.181 1.348c-1.138.337-2.212.506-3.224.506zM96.908 30.501c-2.247 0-4.15-.421-5.71-1.264-1.559-.843-2.746-2.009-3.56-3.498-.815-1.489-1.222-3.202-1.222-5.14 0-1.854.477-3.526 1.432-5.015.955-1.489 2.234-2.675 3.835-3.56 1.601-.885 3.385-1.328 5.351-1.328 2.64 0 4.811.766 6.511 2.297 1.699 1.53 2.802 3.743 3.307 6.636L92.526 24.18l-1.307-3.202 10.366-3.498-1.222.548a4.4 4.4 0 0 0-1.2-1.917c-.577-.548-1.44-.822-2.592-.822-.871 0-1.636.204-2.297.611-.66.408-1.165.984-1.517 1.728-.35.744-.526 1.622-.526 2.634 0 1.151.21 2.113.632 2.886.421.773.997 1.355 1.727 1.749.73.393 1.545.59 2.444.59.646 0 1.271-.113 1.875-.337.604-.225 1.201-.52 1.791-.885l2.613 4.382a14.938 14.938 0 0 1-3.182 1.348c-1.137.337-2.212.506-3.223.506zM129.879 0l-5.857 5.857v7.03c-.731-.758-1.637-1.32-2.718-1.685a10.532 10.532 0 0 0-3.392-.548c-1.854 0-3.512.38-4.973 1.138-1.46.758-2.612 1.868-3.455 3.329-.843 1.46-1.264 3.23-1.264 5.309s.386 3.877 1.159 5.394c.772 1.517 1.833 2.675 3.181 3.476 1.349.8 2.88 1.2 4.593 1.2 1.545 0 2.908-.273 4.088-.82a15.013 15.013 0 0 0 2.739-1.639v2.428h5.899V0zm-10.787 15.29c.786 0 1.509.119 2.17.357.66.24 1.222.576 1.685 1.012.464.435.808.962 1.033 1.58v4.509a5.599 5.599 0 0 1-1.201 1.538 4.797 4.797 0 0 1-1.602.927c-.604.21-1.299.316-2.085.316a4.602 4.602 0 0 1-2.423-.674A5.038 5.038 0 0 1 114.878 23c-.45-.786-.674-1.671-.674-2.654 0-.983.224-1.854.674-2.613a4.966 4.966 0 0 1 1.791-1.79 4.714 4.714 0 0 1 2.423-.654zM9.881 10.823l-7.226 7.226v11.61c0 1.292-.232 2.387-.696 3.286A6.474 6.474 0 0 1 0 35.221l3.413 3.665c1.854-.842 3.175-1.987 3.961-3.434.787-1.447 1.18-3.265 1.18-5.457V17.133a12.76 12.76 0 0 1 1.454-6.31H9.88z" fill="#353536"/><path d="M6.19 3.534a3.546 3.546 0 0 0-3.173 1.922h2.645L2.655 8.463v2.424h3.818c1.95 0 3.535-1.54 3.535-3.437V3.534H6.189z" fill="#0ABF52"/></svg>