<svg width="513" height="513" fill="none" xmlns="http://www.w3.org/2000/svg"><path d="M74.04 1 1 74.04h73.04V1zM74.04 293.156 1 366.195h73.04v-73.039zM74.04 147.078 1 220.117h73.04v-73.039zM74.04 439.235 1 512.275h73.04v-73.04z" stroke="#ECA6A6" stroke-linecap="round" stroke-linejoin="round"/><path d="M74.04 73.726 1 146.765h73.04v-73.04zM74.04 365.883 1 438.922h73.04v-73.039zM74.04 219.804 1 292.843h73.04v-73.039zM74.04 511.961 1 585h73.04v-73.039zM147.392 1l-73.04 73.04h73.04V1zM147.392 293.156l-73.04 73.039h73.04v-73.039zM147.392 147.078l-73.04 73.039h73.04v-73.039zM147.392 439.235l-73.04 73.04h73.04v-73.04z" stroke="#ECA6A6" stroke-linecap="round" stroke-linejoin="round"/><path d="m147.392 73.726-73.04 73.039h73.04v-73.04zM147.392 365.883l-73.04 73.039h73.04v-73.039zM147.392 219.804l-73.04 73.039h73.04v-73.039zM147.392 511.961 74.352 585h73.04v-73.039zM220.745 1l-73.04 73.04h73.04V1zM220.745 293.156l-73.04 73.039h73.04v-73.039zM220.745 147.078l-73.04 73.039h73.04v-73.039zM220.745 439.235l-73.04 73.04h73.04v-73.04z" stroke="#ECA6A6" stroke-linecap="round" stroke-linejoin="round"/><path d="m220.745 73.726-73.04 73.039h73.04v-73.04zM220.745 365.883l-73.04 73.039h73.04v-73.039zM220.745 219.804l-73.04 73.039h73.04v-73.039zM220.745 511.961 147.705 585h73.04v-73.039zM294.097 1l-73.039 73.04h73.039V1zM294.097 293.156l-73.039 73.039h73.039v-73.039zM294.097 147.078l-73.039 73.039h73.039v-73.039zM294.097 439.235l-73.039 73.04h73.039v-73.04z" stroke="#ECA6A6" stroke-linecap="round" stroke-linejoin="round"/><path d="m294.097 73.726-73.039 73.039h73.039v-73.04zM294.097 365.883l-73.039 73.039h73.039v-73.039zM294.097 219.804l-73.039 73.039h73.039v-73.039zM294.097 511.961 221.058 585h73.039v-73.039zM367.45 1l-73.039 73.04h73.039V1zM367.45 293.156l-73.039 73.039h73.039v-73.039zM367.45 147.078l-73.039 73.039h73.039v-73.039zM367.45 439.235l-73.039 73.04h73.039v-73.04z" stroke="#ECA6A6" stroke-linecap="round" stroke-linejoin="round"/><path d="m367.45 73.726-73.039 73.039h73.039v-73.04zM367.45 365.883l-73.039 73.039h73.039v-73.039zM367.45 219.804l-73.039 73.039h73.039v-73.039zM367.45 511.961 294.411 585h73.039v-73.039zM440.802 1l-73.039 73.04h73.039V1zM440.802 293.156l-73.039 73.039h73.039v-73.039zM440.802 147.078l-73.039 73.039h73.039v-73.039zM440.802 439.235l-73.039 73.04h73.039v-73.04z" stroke="#ECA6A6" stroke-linecap="round" stroke-linejoin="round"/><path d="m440.802 73.726-73.039 73.039h73.039v-73.04zM440.802 365.883l-73.039 73.039h73.039v-73.039zM440.802 219.804l-73.039 73.039h73.039v-73.039zM440.802 511.961 367.763 585h73.039v-73.039zM514.155 1l-73.039 73.04h73.039V1zM514.155 293.156l-73.039 73.039h73.039v-73.039zM514.155 147.078l-73.039 73.039h73.039v-73.039zM514.155 439.235l-73.039 73.04h73.039v-73.04z" stroke="#ECA6A6" stroke-linecap="round" stroke-linejoin="round"/><path d="m514.155 73.726-73.039 73.039h73.039v-73.04zM514.155 365.883l-73.039 73.039h73.039v-73.039zM514.155 219.804l-73.039 73.039h73.039v-73.039zM514.155 511.961 441.116 585h73.039v-73.039z" stroke="#ECA6A6" stroke-linecap="round" stroke-linejoin="round"/></svg>